<?xml version="1.0" encoding="utf-8"?>
<!-- Generator: Adobe Illustrator 23.0.3, SVG Export Plug-In . SVG Version: 6.00 Build 0)  -->
<svg version="1.1" id="Layer_1" xmlns="http://www.w3.org/2000/svg" xmlns:xlink="http://www.w3.org/1999/xlink" x="0px" y="0px"
	 viewBox="0 0 130 84" style="enable-background:new 0 0 130 84;" xml:space="preserve">
<style type="text/css">
	.st0{fill-rule:evenodd;clip-rule:evenodd;fill:#007DC4;}
</style>
<g>
	<path class="st0" d="M15.36,15.28h100.44c5.59,0,7.93,2.31,7.93,7.49v38.62c0,5.12-2.62,7.49-7.93,7.49H15.36
		c-6.9,0-7.93-2.76-7.93-7.49V22.77C7.43,17.99,9.25,15.28,15.36,15.28z M59.14,26.27l0.3-0.81c0.1-0.2,0.3-0.2,0.61-0.2h1.51
		c0.2,0,0.51,0.4,0.51,0.4v0.61H59.14z M67.34,26.27l0.29-3.44c0-0.91-1.31-2.53-2.52-2.53c-2.73-0.2-5.35-0.3-7.67,0
		c-1.21,0.1-2.42,0.2-2.83,1.42l-1.41,4.55h-3.22l-0.86,3.8h5.74l-0.45,2.14c-6.26,0-9.09,3.24-8.68,6.49
		c0.5,3.89,5.35,5.37,11.61,4.73l0.91-4.82h-4.95c-1.62,0-1.01-1.58-0.1-1.85l5.45-0.09l1.44-6.58h1.22l-2.71,13.24l5.25-0.09
		l2.41-13.15h1.65l0.87-3.8H67.34z M82.98,26.27l0.3-0.81c0.1-0.2,0.3-0.2,0.61-0.2h1.51c0.2,0,0.5,0.4,0.5,0.4l-0.08,0.61H82.98z
		 M107.96,26.27l0.3-0.81c0.1-0.2,0.3-0.2,0.61-0.2h1.51c0.2,0,0.5,0.4,0.5,0.4l-0.08,0.61H107.96z M77.32,34.55
		c-1.5,0.61-2.51,0.14-2.12-1.01l0.66-3.47h2.38L77.32,34.55z M70.13,30.07c-0.6,3.1-1.92,7.2-0.98,8.75
		c0.81,1.39,2.52,1.48,4.34,1.11c0.94-0.09,1.8-0.58,2.98-1.17l-0.93,4.56l5.25-0.09l2.91-13.15h1.3l-2.71,13.24l5.05-0.09
		l2.91-13.15h0.98l0.87-3.8h-0.92l0.29-3.44c0-0.91-1.31-2.53-2.53-2.53c-3.13-0.1-5.66-0.1-7.67,0c-1.21,0-2.42,0.2-2.83,1.42
		l-1.41,4.55h-7.04l-0.87,3.8H70.13z M101.87,37.29h-4.96l-0.04,0.09l2.63,2.23l-2.73,3.43L89,38.21l1.51-2.87
		c3.02-1.11,4.13-3.42,2.43-5.27h-0.39l0.87-3.8H102l1.41-4.55c0.4-1.22,1.62-1.42,2.83-1.42c2.22-0.1,4.85-0.1,7.67,0
		c1.21,0,2.52,1.62,2.52,2.53l-0.29,3.44h1.01l-0.87,3.8h-0.94l-2.91,13.15l-5.05,0.09l2.71-13.24h-1.3l-2.91,13.15l-5.25,0.09
		L101.87,37.29z M98.62,33.21h4.09l0.64-3.14h-3.42L98.62,33.21z M47.68,46.72h18.19l-1.31,5.95h-6.2l-2.73,11.79h-6.03l2.16-11.79
		h-5.4L47.68,46.72z M73.43,52.4l-0.63,2.45h3.64c0.85,0,1.08-0.36,1.19-0.36c0.4,0,0.91-0.63,0.91-1.1c0-0.63-0.63-0.99-2.16-0.99
		H73.43z M67.85,46.72h10.46c2.9,0,6.94,2.76,6.94,5.79c0,5.16-2.79,7.93-7.56,7.93h-6.37l-0.97,4.02H64.1L67.85,46.72z
		 M24.73,46.72h7.35l4.9,9.65l1.92-9.65h6.71l-4.2,17.74h-7.47L29.17,56l-1.46,8.45h-6.77L24.73,46.72z M109.31,57.35
		c-0.91,3.81-5.57,6.89-11.09,6.89c-6.31,0-11.43-3.97-11.43-8.76c0-4.8,5.12-8.82,11.43-8.82c5.57,0,10.35,3.18,11.26,7.3
		l-7.68,0.1c-0.51-1.04-1.93-1.93-3.58-1.93c-2.22,0-3.98,1.51-3.98,3.29c0,1.77,1.76,3.29,3.98,3.29c1.19,0,2.33-0.47,3.07-1.2
		L109.31,57.35z M15.2,30.07l-1.69,9.57l9.39,5.28l2.42-3.89l-5.45-4.08l1.37-6.88h2.63c0.34,3.02-0.37,5.18-2.05,6.8l2.83,2.04
		c2.58-1.46,4.38-4.26,5.21-8.84h10.7l-0.78,3.05l-9.51,0.09l-0.81,4.08c0.81,1.48,1.72,2.78,3.43,3.15
		c0.71,0.19,2.02-0.37,2.73-1.67c0.2-0.37,0.4-1.02,0.5-1.48h2.58l-1.55,6.02h5.66l3.41-13.24h1.62l0.87-3.8H15.17l-0.86,3.8H15.2z
		 M11.82,10.5h106.77c5.36,0,9.7,4.5,9.7,9.63v43.91c0,5.07-4.56,9.57-9.7,9.57H11.82c-5.19,0-9.75-4.28-9.75-9.57V20.13
		C2.07,14.83,6.46,10.5,11.82,10.5z"/>
</g>
</svg>
